<svg width="261.000000" height="196.000000" viewBox="0 0 261 196" fill="none" xmlns="http://www.w3.org/2000/svg" xmlns:xlink="http://www.w3.org/1999/xlink">
	<desc>
			Created with Pixso.
	</desc>
	<defs/>
	<path id="Дизайн" d="M1.53 16.46L0.35 16.46L0.35 12.9L1.01 12.9C1.69 12.29 2.3 11.03 2.44 8.11L2.66 3.81L8.7 3.81L8.7 12.9L9.88 12.9L9.88 16.44L8.7 16.44L8.7 14L1.53 14L1.53 16.46ZM37.86 4.79C38.55 4.79 38.83 4.33 38.83 3.81L39.93 3.81C39.93 4.89 39.13 5.64 37.86 5.64C36.6 5.64 35.81 4.89 35.81 3.81L36.91 3.81C36.91 4.33 37.16 4.79 37.86 4.79ZM3.61 8.11C3.5 10.33 3.1 11.93 2.48 12.9L7.53 12.9L7.53 4.91L3.77 4.91L3.61 8.11ZM22.33 14.16C20.7 14.16 19.5 13.3 19.47 12.05L20.72 12.05C20.77 12.74 21.39 13.1 22.31 13.1C23.25 13.1 24.02 12.74 24.02 11.87C24.02 11.11 23.42 10.59 22.49 10.59L21.17 10.59L21.17 9.54L22.49 9.54C23.42 9.54 23.86 9.06 23.86 8.43C23.86 7.75 23.36 7.29 22.47 7.29C21.57 7.29 20.91 7.74 20.88 8.37L19.64 8.37C19.68 7.14 20.82 6.26 22.41 6.26C24.02 6.26 25.05 7.18 25.05 8.39C25.05 9.25 24.5 9.77 23.78 10L23.78 10.08C24.64 10.14 25.21 10.91 25.21 11.87C25.21 13.26 24 14.16 22.33 14.16ZM31.38 12.96C31.14 13.46 30.44 14.17 29.11 14.17C27.66 14.17 26.5 13.32 26.5 11.83C26.5 10.08 28.05 9.76 29.47 9.58C30.86 9.4 31.43 9.45 31.43 8.89L31.43 8.84C31.43 7.87 30.9 7.29 29.82 7.29C28.71 7.29 28.09 7.89 27.84 8.45L26.72 8.05C27.32 6.66 28.63 6.26 29.78 6.26C30.76 6.26 32.61 6.54 32.61 8.96L32.61 14L31.43 14L31.43 12.96L31.38 12.96ZM12.76 6.36L12.76 12.27L16.44 6.36L17.79 6.36L17.79 14L16.62 14L16.62 8.09L12.96 14L11.59 14L11.59 6.36L12.76 6.36ZM35.93 6.36L35.93 12.27L39.61 6.36L40.96 6.36L40.96 14L39.79 14L39.79 8.09L36.13 14L34.76 14L34.76 6.36L35.93 6.36ZM43.11 6.36L44.28 6.36L44.28 9.64L47.94 9.64L47.94 6.36L49.11 6.36L49.11 14L47.94 14L47.94 10.73L44.28 10.73L44.28 14L43.11 14L43.11 6.36ZM27.68 11.89C27.68 12.7 28.35 13.12 29.29 13.12C30.68 13.12 31.43 12.19 31.43 11.23L31.43 10.16C31.24 10.4 29.9 10.54 29.41 10.59C28.49 10.71 27.68 10.99 27.68 11.89Z" fill="#7E8794" fill-opacity="1.000000" fill-rule="evenodd"/>
	<rect id="Frame 2383" rx="2.000000" width="50.599998" height="4.000000" transform="translate(0.000000 22.000000)" fill="#FF4D4D" fill-opacity="1.000000"/>
	<rect id="Frame 2384" rx="2.000000" width="50.599998" height="4.000000" transform="translate(52.599609 22.000000)" fill="#FF4D4D" fill-opacity="1.000000"/>
	<rect id="Frame 2385" rx="2.000000" width="50.599998" height="4.000000" transform="translate(105.200195 22.000000)" fill="#FF4D4D" fill-opacity="1.000000"/>
	<rect id="Frame 2386" rx="2.000000" width="50.599998" height="4.000000" transform="translate(157.799805 22.000000)" fill="#FF4D4D" fill-opacity="1.000000"/>
	<rect id="Frame 2387" rx="2.000000" width="50.599998" height="4.000000" transform="translate(210.400391 22.000000)" fill="#ECEEEF" fill-opacity="1.000000"/>
	<path id="Батарея" d="M5.05 48L1.23 48L1.23 37.81L7.37 37.81L7.37 38.91L2.46 38.91L2.46 42.09L5.05 42.09C7.23 42.09 8.43 43.22 8.43 44.99C8.43 46.76 7.23 48 5.05 48ZM14.81 46.96C14.57 47.46 13.87 48.17 12.54 48.17C11.09 48.17 9.94 47.32 9.94 45.83C9.94 44.08 11.49 43.76 12.9 43.58C14.29 43.4 14.87 43.45 14.87 42.89L14.87 42.84C14.87 41.87 14.34 41.29 13.26 41.29C12.14 41.29 11.53 41.89 11.27 42.45L10.16 42.05C10.75 40.66 12.07 40.26 13.22 40.26C14.2 40.26 16.04 40.54 16.04 42.96L16.04 48L14.87 48L14.87 46.96L14.81 46.96ZM29.19 46.96C28.95 47.46 28.25 48.17 26.92 48.17C25.47 48.17 24.31 47.32 24.31 45.83C24.31 44.08 25.86 43.76 27.28 43.58C28.67 43.4 29.25 43.45 29.25 42.89L29.25 42.84C29.25 41.87 28.72 41.29 27.64 41.29C26.52 41.29 25.91 41.89 25.65 42.45L24.53 42.05C25.13 40.66 26.44 40.26 27.6 40.26C28.57 40.26 30.42 40.54 30.42 42.96L30.42 48L29.25 48L29.25 46.96L29.19 46.96ZM33.74 50.86L32.57 50.86L32.57 40.36L33.7 40.36L33.7 41.57L33.84 41.57C34.1 41.17 34.56 40.26 36.05 40.26C37.98 40.26 39.31 41.79 39.31 44.2C39.31 46.62 37.98 48.16 36.07 48.16C34.6 48.16 34.1 47.24 33.84 46.82L33.74 46.82L33.74 50.86ZM47.34 46.22C46.99 47.38 45.85 48.16 44.3 48.16C42.09 48.16 40.74 46.58 40.74 44.24C40.74 41.89 42.11 40.26 44.18 40.26C45.77 40.26 47.46 41.23 47.46 44.08L47.46 44.57L41.92 44.57C41.97 46.21 42.92 47.1 44.3 47.1C45.22 47.1 45.91 46.7 46.21 45.91L47.34 46.22ZM19.68 41.45L17.16 41.45L17.16 40.36L23.36 40.36L23.36 41.45L20.85 41.45L20.85 48L19.68 48L19.68 41.45ZM54.96 48L53.85 48L53.85 44.89L51.8 44.89L50.03 48L48.76 48L50.62 44.73C49.7 44.42 49.17 43.67 49.17 42.63C49.17 41.22 50.17 40.36 51.82 40.36L54.96 40.36L54.96 48ZM35.91 41.31C34.48 41.31 33.72 42.47 33.72 44.18C33.72 45.91 34.5 47.1 35.91 47.1C37.38 47.1 38.14 45.81 38.14 44.18C38.14 42.57 37.4 41.31 35.91 41.31ZM44.18 41.31C42.84 41.31 42 42.37 41.92 43.56L46.27 43.56C46.27 42.27 45.45 41.31 44.18 41.31ZM51.68 43.8L53.85 43.8L53.85 41.43L51.82 41.43C50.9 41.43 50.35 41.88 50.35 42.63C50.35 43.36 50.85 43.8 51.68 43.8ZM2.46 43.18L2.46 46.92L5.05 46.92C6.44 46.92 7.21 45.97 7.21 44.97C7.21 44 6.44 43.18 5.05 43.18L2.46 43.18ZM11.11 45.89C11.11 46.7 11.79 47.12 12.72 47.12C14.11 47.12 14.87 46.19 14.87 45.23L14.87 44.16C14.67 44.4 13.34 44.54 12.84 44.59C11.93 44.71 11.11 44.99 11.11 45.89ZM25.49 45.89C25.49 46.7 26.17 47.12 27.1 47.12C28.49 47.12 29.25 46.19 29.25 45.23L29.25 44.16C29.05 44.4 27.72 44.54 27.22 44.59C26.3 44.71 25.49 44.99 25.49 45.89Z" fill="#7E8794" fill-opacity="1.000000" fill-rule="evenodd"/>
	<rect id="Frame 2383" rx="2.000000" width="50.599998" height="4.000000" transform="translate(0.000000 56.000000)" fill="#FF4D4D" fill-opacity="1.000000"/>
	<rect id="Frame 2384" rx="2.000000" width="50.599998" height="4.000000" transform="translate(52.599609 56.000000)" fill="#FF4D4D" fill-opacity="1.000000"/>
	<rect id="Frame 2385" rx="2.000000" width="50.599998" height="4.000000" transform="translate(105.200195 56.000000)" fill="#ECEEEF" fill-opacity="1.000000"/>
	<rect id="Frame 2386" rx="2.000000" width="50.599998" height="4.000000" transform="translate(157.799805 56.000000)" fill="#ECEEEF" fill-opacity="1.000000"/>
	<rect id="Frame 2387" rx="2.000000" width="50.599998" height="4.000000" transform="translate(210.400391 56.000000)" fill="#ECEEEF" fill-opacity="1.000000"/>
	<path id="Дисплей" d="M1.53 84.46L0.35 84.46L0.35 80.9L1.01 80.9C1.69 80.29 2.3 79.03 2.44 76.11L2.66 71.81L8.7 71.81L8.7 80.9L9.88 80.9L9.88 84.44L8.7 84.44L8.7 82L1.53 82L1.53 84.46ZM55.42 72.79C56.11 72.79 56.39 72.33 56.39 71.81L57.49 71.81C57.49 72.89 56.69 73.64 55.42 73.64C54.16 73.64 53.37 72.89 53.37 71.81L54.47 71.81C54.47 72.33 54.72 72.79 55.42 72.79ZM3.61 76.11C3.5 78.33 3.1 79.93 2.48 80.9L7.53 80.9L7.53 72.91L3.77 72.91L3.61 76.11ZM26.04 79.77C25.85 81.12 24.73 82.16 23.04 82.16C20.89 82.16 19.58 80.5 19.58 78.22C19.58 75.89 20.96 74.26 23.02 74.26C24.63 74.26 25.85 75.21 26.04 76.65L24.87 76.65C24.69 75.95 24.08 75.31 23.04 75.31C21.67 75.31 20.76 76.45 20.76 78.18C20.76 79.95 21.65 81.1 23.04 81.1C23.96 81.1 24.65 80.6 24.87 79.77L26.04 79.77ZM50.41 80.22C50.05 81.38 48.92 82.16 47.36 82.16C45.16 82.16 43.8 80.58 43.8 78.24C43.8 75.89 45.18 74.26 47.25 74.26C48.83 74.26 50.53 75.23 50.53 78.08L50.53 78.57L44.98 78.57C45.04 80.21 45.99 81.1 47.36 81.1C48.28 81.1 48.97 80.7 49.27 79.91L50.41 80.22ZM12.76 74.36L12.76 80.27L16.44 74.36L17.79 74.36L17.79 82L16.62 82L16.62 76.09L12.96 82L11.59 82L11.59 74.36L12.76 74.36ZM28.93 82L27.76 82L27.76 74.36L33.76 74.36L33.76 82L32.59 82L32.59 75.45L28.93 75.45L28.93 82ZM35.63 82L35.23 82L35.23 80.9L35.51 80.9C36.43 80.9 36.68 80.3 36.78 77.74L36.92 74.36L42.01 74.36L42.01 82L40.84 82L40.84 75.45L38.04 75.45L37.92 78.18C37.81 80.68 37.32 82 35.63 82ZM53.49 74.36L53.49 80.27L57.17 74.36L58.52 74.36L58.52 82L57.35 82L57.35 76.09L53.69 82L52.32 82L52.32 74.36L53.49 74.36ZM47.25 75.31C45.9 75.31 45.06 76.37 44.98 77.56L49.33 77.56C49.33 76.27 48.52 75.31 47.25 75.31Z" fill="#7E8794" fill-opacity="1.000000" fill-rule="evenodd"/>
	<rect id="Frame 2383" rx="2.000000" width="50.599998" height="4.000000" transform="translate(0.000000 90.000000)" fill="#FF4D4D" fill-opacity="1.000000"/>
	<rect id="Frame 2384" rx="2.000000" width="50.599998" height="4.000000" transform="translate(52.599609 90.000000)" fill="#FF4D4D" fill-opacity="1.000000"/>
	<rect id="Frame 2385" rx="2.000000" width="50.599998" height="4.000000" transform="translate(105.200195 90.000000)" fill="#FF4D4D" fill-opacity="1.000000"/>
	<rect id="Frame 2386" rx="2.000000" width="50.599998" height="4.000000" transform="translate(157.799805 90.000000)" fill="#FF4D4D" fill-opacity="1.000000"/>
	<rect id="Frame 2387" rx="2.000000" width="50.599998" height="4.000000" transform="translate(210.400391 90.000000)" fill="#ECEEEF" fill-opacity="1.000000"/>
	<path id="Камера" d="M8.69 116L7.21 116L3.71 111.32L2.46 111.32L2.46 116L1.23 116L1.23 105.81L2.46 105.81L2.46 110.23L3 110.23L7.07 105.81L8.55 105.81L4.43 110.29L8.69 116ZM14.63 114.96C14.39 115.46 13.7 116.17 12.37 116.17C10.91 116.17 9.76 115.32 9.76 113.83C9.76 112.08 11.31 111.76 12.72 111.58C14.12 111.4 14.69 111.45 14.69 110.89L14.69 110.84C14.69 109.87 14.16 109.29 13.08 109.29C11.96 109.29 11.35 109.89 11.09 110.45L9.98 110.05C10.57 108.66 11.89 108.26 13.04 108.26C14.02 108.26 15.87 108.54 15.87 110.96L15.87 116L14.69 116L14.69 114.96L14.63 114.96ZM34.76 114.22C34.4 115.38 33.27 116.16 31.71 116.16C29.51 116.16 28.15 114.58 28.15 112.24C28.15 109.89 29.53 108.26 31.59 108.26C33.18 108.26 34.88 109.23 34.88 112.08L34.88 112.57L29.33 112.57C29.39 114.21 30.34 115.1 31.71 115.1C32.63 115.1 33.32 114.7 33.62 113.91L34.76 114.22ZM37.84 118.86L36.66 118.86L36.66 108.36L37.8 108.36L37.8 109.57L37.94 109.57C38.2 109.17 38.65 108.26 40.14 108.26C42.08 108.26 43.41 109.79 43.41 112.2C43.41 114.62 42.08 116.16 40.16 116.16C38.7 116.16 38.2 115.24 37.94 114.82L37.84 114.82L37.84 118.86ZM49.71 114.96C49.47 115.46 48.77 116.17 47.45 116.17C45.99 116.17 44.84 115.32 44.84 113.83C44.84 112.08 46.39 111.76 47.8 111.58C49.2 111.4 49.77 111.45 49.77 110.89L49.77 110.84C49.77 109.87 49.24 109.29 48.16 109.29C47.04 109.29 46.43 109.89 46.17 110.45L45.06 110.05C45.65 108.66 46.97 108.26 48.12 108.26C49.1 108.26 50.95 108.54 50.95 110.96L50.95 116L49.77 116L49.77 114.96L49.71 114.96ZM19.56 108.36L22.19 114.41L24.85 108.36L26.36 108.36L26.36 116L25.19 116L25.19 110.15L22.67 116L21.71 116L19.18 110.04L19.18 116L18.01 116L18.01 108.36L19.56 108.36ZM31.59 109.31C30.25 109.31 29.41 110.37 29.33 111.56L33.68 111.56C33.68 110.27 32.87 109.31 31.59 109.31ZM40.01 109.31C38.58 109.31 37.82 110.47 37.82 112.18C37.82 113.91 38.6 115.1 40.01 115.1C41.48 115.1 42.23 113.81 42.23 112.18C42.23 110.57 41.5 109.31 40.01 109.31ZM10.93 113.89C10.93 114.7 11.61 115.12 12.54 115.12C13.93 115.12 14.69 114.19 14.69 113.23L14.69 112.16C14.49 112.4 13.16 112.54 12.66 112.59C11.75 112.71 10.93 112.99 10.93 113.89ZM46.01 113.89C46.01 114.7 46.69 115.12 47.62 115.12C49.01 115.12 49.77 114.19 49.77 113.23L49.77 112.16C49.57 112.4 48.24 112.54 47.74 112.59C46.83 112.71 46.01 112.99 46.01 113.89Z" fill="#7E8794" fill-opacity="1.000000" fill-rule="evenodd"/>
	<rect id="Frame 2383" rx="2.000000" width="50.599998" height="4.000000" transform="translate(0.000000 124.000000)" fill="#FF4D4D" fill-opacity="1.000000"/>
	<rect id="Frame 2384" rx="2.000000" width="50.599998" height="4.000000" transform="translate(52.599609 124.000000)" fill="#FF4D4D" fill-opacity="1.000000"/>
	<rect id="Frame 2385" rx="2.000000" width="50.599998" height="4.000000" transform="translate(105.200195 124.000000)" fill="#FF4D4D" fill-opacity="1.000000"/>
	<rect id="Frame 2386" rx="2.000000" width="50.599998" height="4.000000" transform="translate(157.799805 124.000000)" fill="#FF4D4D" fill-opacity="1.000000"/>
	<rect id="Frame 2387" rx="2.000000" width="50.599998" height="4.000000" transform="translate(210.400391 124.000000)" fill="#FF4D4D" fill-opacity="1.000000"/>
	<path id="Ответ" d="M5.32 139.67C7.93 139.67 9.82 141.68 9.82 144.91C9.82 148.13 7.93 150.14 5.32 150.14C2.72 150.14 0.83 148.13 0.83 144.91C0.83 141.68 2.72 139.67 5.32 139.67ZM5.32 148.98C7.17 148.98 8.63 147.55 8.63 144.91C8.63 142.26 7.17 140.83 5.32 140.83C3.47 140.83 2.02 142.26 2.02 144.91C2.02 147.55 3.47 148.98 5.32 148.98ZM33.3 148.22C32.95 149.38 31.81 150.16 30.26 150.16C28.05 150.16 26.7 148.58 26.7 146.24C26.7 143.89 28.07 142.26 30.14 142.26C31.73 142.26 33.42 143.23 33.42 146.08L33.42 146.57L27.88 146.57C27.93 148.21 28.88 149.1 30.26 149.1C31.18 149.1 31.87 148.7 32.17 147.91L33.3 148.22ZM13.82 143.45L11.29 143.45L11.29 142.36L17.49 142.36L17.49 143.45L14.99 143.45L14.99 150L13.82 150L13.82 143.45ZM22.8 150L19.2 150L19.2 142.36L22.33 142.36C23.97 142.36 25.01 143.17 25.01 144.39C25.01 145.32 24.4 145.8 23.54 145.98C24.38 146.1 25.29 146.75 25.29 147.95C25.29 149.12 24.36 150 22.8 150ZM37.02 143.45L34.5 143.45L34.5 142.36L40.7 142.36L40.7 143.45L38.2 143.45L38.2 150L37.02 150L37.02 143.45ZM30.14 143.31C28.8 143.31 27.96 144.37 27.88 145.56L32.23 145.56C32.23 144.27 31.41 143.31 30.14 143.31ZM20.32 143.43L20.32 145.56L22.33 145.56C23.27 145.56 23.84 145.15 23.84 144.47C23.84 143.83 23.27 143.43 22.33 143.43L20.32 143.43ZM20.32 146.57L20.32 148.92L22.8 148.92C23.61 148.92 24.1 148.52 24.1 147.85C24.1 147.06 23.61 146.57 22.8 146.57L20.32 146.57Z" fill="#7E8794" fill-opacity="1.000000" fill-rule="evenodd"/>
	<rect id="Frame 2383" rx="2.000000" width="50.599998" height="4.000000" transform="translate(0.000000 158.000000)" fill="#FF4D4D" fill-opacity="1.000000"/>
	<rect id="Frame 2384" rx="2.000000" width="50.599998" height="4.000000" transform="translate(52.599609 158.000000)" fill="#FF4D4D" fill-opacity="1.000000"/>
	<rect id="Frame 2385" rx="2.000000" width="50.599998" height="4.000000" transform="translate(105.200195 158.000000)" fill="#FF4D4D" fill-opacity="1.000000"/>
	<rect id="Frame 2386" rx="2.000000" width="50.599998" height="4.000000" transform="translate(157.799805 158.000000)" fill="#FF4D4D" fill-opacity="1.000000"/>
	<rect id="Frame 2387" rx="2.000000" width="50.599998" height="4.000000" transform="translate(210.400391 158.000000)" fill="#FF4D4D" fill-opacity="1.000000"/>
	<path id="Портативность" d="M1.25 173.81L8.84 173.81L8.84 184L7.61 184L7.61 174.91L2.48 174.91L2.48 184L1.25 184L1.25 173.81ZM17.73 180.22C17.73 182.58 16.34 184.16 14.27 184.16C12.21 184.16 10.81 182.58 10.81 180.22C10.81 177.83 12.21 176.26 14.27 176.26C16.34 176.26 17.73 177.83 17.73 180.22ZM20.7 186.86L19.52 186.86L19.52 176.36L20.66 176.36L20.66 177.57L20.8 177.57C21.05 177.17 21.51 176.26 23 176.26C24.93 176.26 26.27 177.79 26.27 180.2C26.27 182.62 24.93 184.16 23.02 184.16C21.55 184.16 21.05 183.24 20.8 182.82L20.7 182.82L20.7 186.86ZM39.09 182.96C38.85 183.46 38.16 184.17 36.83 184.17C35.37 184.17 34.22 183.32 34.22 181.83C34.22 180.08 35.77 179.76 37.18 179.58C38.58 179.4 39.15 179.45 39.15 178.89L39.15 178.84C39.15 177.87 38.62 177.29 37.54 177.29C36.42 177.29 35.81 177.89 35.55 178.45L34.44 178.05C35.03 176.66 36.35 176.26 37.5 176.26C38.48 176.26 40.33 176.54 40.33 178.96L40.33 184L39.15 184L39.15 182.96L39.09 182.96ZM80.28 180.22C80.28 182.58 78.88 184.16 76.82 184.16C74.75 184.16 73.35 182.58 73.35 180.22C73.35 177.83 74.75 176.26 76.82 176.26C78.88 176.26 80.28 177.83 80.28 180.22ZM88.17 181.77C87.97 183.12 86.86 184.16 85.17 184.16C83.02 184.16 81.71 182.51 81.71 180.22C81.71 177.89 83.08 176.26 85.15 176.26C86.76 176.26 87.97 177.21 88.17 178.65L87 178.65C86.82 177.95 86.2 177.31 85.17 177.31C83.79 177.31 82.88 178.45 82.88 180.18C82.88 181.95 83.78 183.1 85.17 183.1C86.08 183.1 86.78 182.6 87 181.77L88.17 181.77ZM29.59 177.45L27.06 177.45L27.06 176.36L33.26 176.36L33.26 177.45L30.76 177.45L30.76 184L29.59 184L29.59 177.45ZM43.96 177.45L41.44 177.45L41.44 176.36L47.64 176.36L47.64 177.45L45.14 177.45L45.14 184L43.96 184L43.96 177.45ZM50.52 176.36L50.52 182.27L54.21 176.36L55.56 176.36L55.56 184L54.38 184L54.38 178.09L50.73 184L49.35 184L49.35 176.36L50.52 176.36ZM61.3 184L57.7 184L57.7 176.36L60.83 176.36C62.47 176.36 63.51 177.17 63.51 178.39C63.51 179.32 62.9 179.8 62.04 179.98C62.88 180.1 63.79 180.75 63.79 181.95C63.79 183.12 62.86 184 61.3 184ZM65.56 176.36L66.73 176.36L66.73 179.64L70.39 179.64L70.39 176.36L71.57 176.36L71.57 184L70.39 184L70.39 180.73L66.73 180.73L66.73 184L65.56 184L65.56 176.36ZM91.81 177.45L89.28 177.45L89.28 176.36L95.49 176.36L95.49 177.45L92.98 177.45L92.98 184L91.81 184L91.81 177.45ZM98.37 176.36L98.37 179.12L100.4 179.12C102.19 179.12 103.17 180.14 103.17 181.53C103.17 182.9 102.19 184 100.4 184L97.2 184L97.2 176.36L98.37 176.36ZM11.99 180.22C11.99 181.75 12.7 183.1 14.27 183.1C15.84 183.1 16.56 181.75 16.56 180.22C16.56 178.69 15.84 177.31 14.27 177.31C12.7 177.31 11.99 178.69 11.99 180.22ZM22.87 177.31C21.43 177.31 20.68 178.47 20.68 180.18C20.68 181.91 21.45 183.1 22.87 183.1C24.34 183.1 25.09 181.81 25.09 180.18C25.09 178.57 24.36 177.31 22.87 177.31ZM74.53 180.22C74.53 181.75 75.24 183.1 76.82 183.1C78.39 183.1 79.1 181.75 79.1 180.22C79.1 178.69 78.39 177.31 76.82 177.31C75.24 177.31 74.53 178.69 74.53 180.22ZM58.82 177.43L58.82 179.56L60.83 179.56C61.77 179.56 62.34 179.15 62.34 178.47C62.34 177.83 61.77 177.43 60.83 177.43L58.82 177.43ZM35.39 181.89C35.39 182.7 36.07 183.12 37 183.12C38.39 183.12 39.15 182.19 39.15 181.23L39.15 180.16C38.95 180.4 37.62 180.54 37.12 180.59C36.21 180.71 35.39 180.99 35.39 181.89ZM100.4 180.22L98.37 180.22L98.37 182.9L100.4 182.9C101.33 182.9 101.99 182.36 101.99 181.59C101.99 180.78 101.33 180.22 100.4 180.22ZM58.82 180.57L58.82 182.92L61.3 182.92C62.11 182.92 62.6 182.52 62.6 181.85C62.6 181.06 62.11 180.57 61.3 180.57L58.82 180.57Z" fill="#7E8794" fill-opacity="1.000000" fill-rule="evenodd"/>
	<rect id="Frame 2383" rx="2.000000" width="50.599998" height="4.000000" transform="translate(0.000000 192.000000)" fill="#FF4D4D" fill-opacity="1.000000"/>
	<rect id="Frame 2384" rx="2.000000" width="50.599998" height="4.000000" transform="translate(52.599609 192.000000)" fill="#FF4D4D" fill-opacity="1.000000"/>
	<rect id="Frame 2385" rx="2.000000" width="50.599998" height="4.000000" transform="translate(105.200195 192.000000)" fill="#FF4D4D" fill-opacity="1.000000"/>
	<rect id="Frame 2386" rx="2.000000" width="50.599998" height="4.000000" transform="translate(157.799805 192.000000)" fill="#FF4D4D" fill-opacity="1.000000"/>
	<rect id="Frame 2387" rx="2.000000" width="50.599998" height="4.000000" transform="translate(210.400391 192.000000)" fill="#ECEEEF" fill-opacity="1.000000"/>
</svg>
