<svg width="44.000000" height="44.000000" viewBox="0 0 44 44" fill="none" xmlns="http://www.w3.org/2000/svg" xmlns:xlink="http://www.w3.org/1999/xlink">
	<desc>
			Created with Pixso.
	</desc>
	<defs>
		<clipPath id="clip43_30765">
			<rect id="Frame 7" rx="21.500000" width="43.000000" height="43.000000" transform="translate(0.500000 0.500000)" fill="white" fill-opacity="0"/>
		</clipPath>
	</defs>
	<rect id="Frame 7" rx="21.500000" width="43.000000" height="43.000000" transform="translate(0.500000 0.500000)" fill="#FDFDFD" fill-opacity="1.000000"/>
	<g clip-path="url(#clip43_30765)">
		<rect id="vuesax/linear/chart" width="20.000000" height="20.000000" transform="translate(12.000000 12.000000)" fill="#FFFFFF" fill-opacity="0"/>
		<path id="Vector" d="M13.66 30.33L30.33 30.33" stroke="#263141" stroke-opacity="1.000000" stroke-width="1.250000" stroke-linejoin="round" stroke-linecap="round"/>
		<path id="Vector" d="M20.12 30.33L23.87 30.33L23.87 15.33C23.87 14.41 23.5 13.66 22.37 13.66L21.62 13.66C20.5 13.66 20.12 14.41 20.12 15.33L20.12 30.33Z" stroke="#263141" stroke-opacity="1.000000" stroke-width="1.250000" stroke-linejoin="round"/>
		<path id="Vector" d="M14.5 30.33L17.83 30.33L17.83 20.33C17.83 19.41 17.5 18.66 16.5 18.66L15.83 18.66C14.83 18.66 14.5 19.41 14.5 20.33L14.5 30.33Z" stroke="#263141" stroke-opacity="1.000000" stroke-width="1.250000" stroke-linejoin="round"/>
		<path id="Vector" d="M26.16 30.33L29.5 30.33L29.5 24.5C29.5 23.58 29.16 22.83 28.16 22.83L27.5 22.83C26.5 22.83 26.16 23.58 26.16 24.5L26.16 30.33Z" stroke="#263141" stroke-opacity="1.000000" stroke-width="1.250000" stroke-linejoin="round"/>
		<g opacity="0.000000"/>
	</g>
	<rect id="Frame 7" rx="21.500000" width="43.000000" height="43.000000" transform="translate(0.500000 0.500000)" stroke="#F2F5F9" stroke-opacity="1.000000" stroke-width="1.000000"/>
</svg>
