<svg width="186.000000" height="60.000000" viewBox="0 0 186 60" fill="none" xmlns="http://www.w3.org/2000/svg" xmlns:xlink="http://www.w3.org/1999/xlink">
	<desc>
			Created with Pixso.
	</desc>
	<defs>
		<clipPath id="clip3_27372">
			<rect id="logo" width="186.000000" height="60.000000" fill="white" fill-opacity="0"/>
		</clipPath>
	</defs>
	<rect id="logo" width="186.000000" height="60.000000" fill="#FFFFFF" fill-opacity="0"/>
	<g clip-path="url(#clip3_27372)">
		<path id="Behoof" d="M185.55 21.92L186 21.92L186 17.63C185.44 17.53 184.79 17.45 184.06 17.39C183.33 17.33 182.51 17.29 181.61 17.29C179.11 17.29 177.23 17.87 176 19.03C174.77 20.19 174.15 21.93 174.15 24.26L174.15 24.78L171.55 24.78L171.55 28.9L174.15 28.9L174.15 43.76L180.24 43.76L180.24 28.9L184.73 28.9L184.73 24.78L180.04 24.78L180.04 24.63C180.04 23.4 180.24 22.57 180.66 22.14C181.09 21.71 181.9 21.5 183.09 21.5C183.59 21.5 184.05 21.55 184.48 21.65C184.92 21.75 185.28 21.84 185.55 21.92ZM114.43 43.76L120.55 43.76L120.55 31.41Q120.55 27.84 118.81 26.05C117.66 24.85 116.06 24.26 114.01 24.26C112.79 24.26 111.68 24.48 110.68 24.93C109.69 25.38 108.65 26.03 107.57 26.88L107.57 17.46L101.48 17.46L101.48 43.76L107.57 43.76L107.57 30.31C108.23 29.91 108.85 29.63 109.41 29.45C109.99 29.27 110.55 29.18 111.1 29.18C111.88 29.18 112.48 29.27 112.91 29.46C113.35 29.65 113.68 29.96 113.91 30.38C114.1 30.74 114.23 31.3 114.31 32.07C114.39 32.82 114.43 33.58 114.43 34.35L114.43 43.76ZM73.25 39.32Q74 37.88 74 36.06C74 34.38 73.51 33.02 72.54 32C71.58 30.97 70.28 30.3 68.64 29.97L68.64 29.83C69.81 29.32 70.72 28.59 71.36 27.67Q71.65 27.25 71.85 26.78Q72.32 25.71 72.32 24.44Q72.32 23.05 71.77 21.94Q71.69 21.79 71.61 21.65C71.15 20.83 70.44 20.18 69.48 19.69C68.56 19.23 67.62 18.93 66.68 18.8Q65.27 18.59 62.23 18.59L52.46 18.59L52.46 43.76L63.45 43.76C65.27 43.76 66.78 43.61 67.96 43.29C69.16 42.97 70.25 42.44 71.24 41.7C72.1 41.07 72.77 40.28 73.25 39.32ZM65.36 24.46C65.57 24.88 65.68 25.29 65.68 25.71C65.68 26.25 65.59 26.73 65.41 27.15C65.23 27.55 64.85 27.88 64.26 28.14C63.84 28.34 63.27 28.45 62.55 28.48C61.83 28.52 60.96 28.53 59.93 28.53L58.92 28.53L58.92 23.21L59.53 23.21Q61.44 23.21 62.48 23.24C63.19 23.25 63.79 23.35 64.26 23.53C64.79 23.73 65.16 24.04 65.36 24.46ZM83.26 35.4L97.19 35.4L97.19 33.27C97.19 30.34 96.41 28.09 94.86 26.54Q94.82 26.5 94.79 26.47Q92.46 24.19 87.89 24.19Q83.47 24.19 80.69 26.33Q80.32 26.62 79.98 26.94Q79.29 27.6 78.77 28.36Q77.11 30.8 77.11 34.38C77.11 37.55 78.12 39.99 80.15 41.7Q83.19 44.27 88.91 44.27C90.38 44.27 91.73 44.15 92.95 43.9C94.16 43.65 95.46 43.25 96.83 42.7L96.83 37.81L96.16 37.81C95.46 38.34 94.51 38.84 93.3 39.3C92.09 39.76 90.85 39.99 89.56 39.99C87.54 39.99 86 39.6 84.95 38.81Q84.47 38.44 84.12 37.97Q83.35 36.93 83.26 35.4ZM142.83 41.67C144.66 39.86 145.57 37.4 145.57 34.28C145.57 31.16 144.66 28.7 142.85 26.89C141.04 25.09 138.49 24.19 135.17 24.19Q130.81 24.19 128.15 26.31Q127.82 26.58 127.51 26.88C125.69 28.67 124.78 31.14 124.78 34.28C124.78 37.4 125.68 39.86 127.5 41.67C129.32 43.46 131.88 44.35 135.17 44.35Q139.62 44.35 142.27 42.17Q142.56 41.93 142.83 41.67ZM167.53 40.58Q169.34 38.08 169.34 34.28C169.34 31.16 168.43 28.7 166.61 26.89C164.81 25.09 162.25 24.19 158.94 24.19Q154.58 24.19 151.92 26.31Q151.59 26.58 151.28 26.88C149.46 28.67 148.54 31.14 148.54 34.28C148.54 37.4 149.45 39.86 151.26 41.67C153.09 43.46 155.65 44.35 158.94 44.35Q163.39 44.35 166.04 42.17Q166.33 41.93 166.6 41.67Q167.11 41.16 167.53 40.58ZM90.19 28.96C90.79 29.6 91.1 30.56 91.14 31.83L83.24 31.83C83.33 30.49 83.76 29.51 84.51 28.9C85.27 28.3 86.23 27.99 87.4 27.99Q89.26 27.99 90.16 28.92Q90.17 28.94 90.19 28.96ZM138.96 37.15C138.77 37.83 138.47 38.41 138.08 38.89C137.73 39.33 137.3 39.65 136.79 39.84C136.3 40.02 135.78 40.11 135.22 40.11C134.58 40.11 134 40.01 133.5 39.81C133 39.6 132.57 39.28 132.21 38.84C131.84 38.38 131.56 37.77 131.37 37.02C131.18 36.25 131.08 35.35 131.08 34.31C131.08 33.15 131.19 32.19 131.4 31.42C131.63 30.66 131.93 30.05 132.3 29.61C132.72 29.14 133.15 28.83 133.6 28.67C134.06 28.51 134.59 28.43 135.17 28.43Q136.05 28.43 136.81 28.72C137.32 28.91 137.75 29.24 138.11 29.7C138.47 30.15 138.75 30.75 138.96 31.51Q139.26 32.64 139.26 34.31Q139.26 36.12 138.96 37.15ZM162.73 37.15C162.53 37.83 162.24 38.41 161.85 38.89C161.5 39.33 161.07 39.65 160.56 39.84C160.07 40.02 159.54 40.11 158.99 40.11C158.35 40.11 157.77 40.01 157.27 39.81C156.77 39.6 156.34 39.28 155.98 38.84C155.61 38.38 155.33 37.77 155.14 37.02Q154.85 35.87 154.85 34.31C154.85 33.15 154.96 32.19 155.17 31.42C155.39 30.66 155.69 30.05 156.07 29.61C156.48 29.14 156.92 28.83 157.37 28.67C157.83 28.51 158.35 28.43 158.94 28.43Q159.82 28.43 160.58 28.72C161.09 28.91 161.52 29.24 161.88 29.7C162.24 30.15 162.52 30.75 162.73 31.51Q163.03 32.64 163.03 34.31Q163.03 36.12 162.73 37.15ZM66.8 34.11C67.11 34.54 67.27 35.15 67.27 35.95Q67.27 36.83 66.91 37.52Q66.89 37.55 66.88 37.58C66.63 38.04 66.17 38.41 65.49 38.69C64.83 38.97 64.1 39.12 63.31 39.13C62.52 39.14 61.22 39.15 59.39 39.15L58.92 39.15L58.92 32.88L60.34 32.88Q61.79 32.88 63.13 32.89C64.02 32.91 64.72 32.98 65.22 33.13C65.97 33.34 66.49 33.67 66.8 34.11Z" fill="#111111" fill-opacity="1.000000" fill-rule="evenodd"/>
		<path id="path0" d="M0 49.44L2.45 49.43L4.9 49.42L6.16 48.03C6.85 47.27 7.5 46.56 7.6 46.45C7.85 46.18 9.98 43.83 10.3 43.47C10.67 43.05 17.17 35.88 17.28 35.78C17.33 35.73 17.75 35.26 18.21 34.74C18.68 34.22 19.09 33.8 19.11 33.8C19.14 33.8 19.55 34.22 20.01 34.74C20.48 35.26 20.9 35.73 20.95 35.78C21.06 35.89 27.55 43.05 27.93 43.47C28.25 43.83 30.38 46.18 30.63 46.45C30.73 46.56 31.38 47.27 32.07 48.03L33.33 49.42L35.78 49.43L38.23 49.44L38.23 31.34L38.23 13.24L35.78 13.25L33.33 13.26L32.99 13.63C32.8 13.84 32.43 14.25 32.15 14.55C31.88 14.85 31.39 15.4 31.05 15.77C30.71 16.14 30.16 16.75 29.82 17.13C28.36 18.74 27.94 19.2 27.22 19.99C26.8 20.45 26.35 20.94 26.23 21.08C26.11 21.22 25.77 21.59 25.49 21.9C24.92 22.53 23.89 23.66 23.46 24.14C23.3 24.32 23.03 24.61 22.85 24.81C22.52 25.17 21.18 26.65 20.79 27.09C20.66 27.23 20.35 27.57 20.1 27.85C19.84 28.13 19.53 28.48 19.4 28.62C19.26 28.78 19.19 28.86 19.12 28.86C19.04 28.86 18.97 28.78 18.83 28.62C18.7 28.48 18.39 28.13 18.13 27.85C17.88 27.57 17.57 27.23 17.44 27.09C17.05 26.65 15.71 25.17 15.38 24.81C15.2 24.61 14.93 24.32 14.77 24.14C14.34 23.66 13.31 22.53 12.74 21.9C12.45 21.59 12.12 21.22 12 21.08C11.88 20.94 11.43 20.45 11.01 19.99C10.59 19.53 9.98 18.85 9.65 18.49C9.32 18.13 8.77 17.52 8.43 17.14C8.09 16.77 7.53 16.15 7.19 15.78C6.85 15.4 6.35 14.85 6.07 14.55C5.8 14.25 5.43 13.84 5.24 13.63L4.9 13.26L2.45 13.25L0 13.24L0 31.34L0 49.44ZM8.6 22.15C8.76 22.32 10.68 24.44 12.86 26.85C15.05 29.27 16.86 31.27 16.87 31.3C16.9 31.37 16.74 31.56 15.84 32.55C15.55 32.86 15.05 33.42 14.71 33.79C14.38 34.16 13.83 34.76 13.49 35.13C12.64 36.07 11.4 37.43 11.13 37.74C11.01 37.88 10.68 38.24 10.39 38.56C9.87 39.13 9.18 39.89 8.03 41.16C7.27 41.99 7.06 42.23 6.57 42.77C5.81 43.6 4.67 44.86 4.41 45.16C4.08 45.53 3.84 45.77 3.8 45.77C3.78 45.77 3.77 39.28 3.77 31.34C3.77 23.4 3.79 16.91 3.82 16.91C3.84 16.91 4.86 18.02 6.09 19.37C7.31 20.72 8.45 21.98 8.6 22.15ZM34.43 45.77C34.39 45.77 34.15 45.53 33.82 45.16C33.59 44.89 33.12 44.38 31.66 42.77C31.02 42.06 30.84 41.87 30.2 41.16C29.85 40.78 29.3 40.16 28.96 39.79C27.96 38.69 27.34 38 27.1 37.74C26.81 37.42 25.55 36.03 24.75 35.14C24.42 34.78 23.87 34.17 23.53 33.8C23.18 33.42 22.67 32.86 22.39 32.55C21.49 31.56 21.33 31.37 21.36 31.3C21.37 31.27 23.18 29.27 25.36 26.85C27.55 24.44 29.47 22.32 29.63 22.15C31.22 20.36 34.38 16.91 34.41 16.91C34.44 16.91 34.46 23.4 34.46 31.34C34.46 39.28 34.45 45.77 34.43 45.77Z" fill="#FF4D4D" fill-opacity="1.000000" fill-rule="nonzero"/>
		<path id="path1" d="M38.19 13.24L38.19 49.42L33.29 49.42L16.83 31.33L19.36 28.6L33.29 13.24L38.19 13.24ZM34.42 16.89L21.32 31.32L34.42 45.75L34.42 16.89Z" fill="#FFC5BB" fill-opacity="1.000000" fill-rule="nonzero"/>
	</g>
</svg>
