<svg width="24.000000" height="24.000000" viewBox="0 0 24 24" fill="none" xmlns="http://www.w3.org/2000/svg" xmlns:xlink="http://www.w3.org/1999/xlink">
	<desc>
			Created with Pixso.
	</desc>
	<defs/>
	<path id="Subtract" d="M15.0728 1.99951L8.93701 1.99951C3.33301 1.99951 1.99951 3.33289 1.99951 8.92676L1.99951 15.0623C1.99951 20.6665 3.32227 21.9999 8.92676 21.9999L15.0625 21.9999C20.6665 21.9999 22 20.677 22 15.0726L22 8.93713C22 3.33289 20.6768 1.99951 15.0728 1.99951ZM17.9375 8.354C18.375 8.354 18.4688 8.57288 18.375 8.88538C18.1978 9.7395 16.4165 12.2395 16.4165 12.25C16.2603 12.4895 16.1978 12.6145 16.4165 12.8959C16.5625 13.1146 17.0728 13.5416 17.4165 13.9479C18.0415 14.6562 18.5103 15.25 18.6455 15.6562C18.7705 16.0625 18.5625 16.2709 18.1455 16.2709L16.6875 16.2709C16.1353 16.2709 15.9688 15.823 14.979 14.8334C14.1143 14 13.7495 13.8959 13.5308 13.8959C13.229 13.8959 13.1455 13.9791 13.1455 14.3959L13.1455 15.7084C13.1455 16.0625 13.0308 16.2709 12.104 16.2709C10.562 16.2709 8.86426 15.3334 7.65576 13.6041C5.84326 11.0729 5.35352 9.15613 5.35352 8.77075C5.35352 8.552 5.43701 8.354 5.854 8.354L7.31201 8.354C7.68701 8.354 7.82275 8.52075 7.96826 8.90613C8.67676 10.9895 9.88525 12.8021 10.3745 12.8021C10.562 12.8021 10.6455 12.7188 10.6455 12.25L10.6455 10.1041C10.583 9.12488 10.062 9.04163 10.062 8.68738C10.062 8.53113 10.208 8.354 10.437 8.354L12.729 8.354C13.0415 8.354 13.1455 8.51038 13.1455 8.88538L13.1455 11.7812C13.1455 12.0938 13.2808 12.1979 13.3745 12.1979C13.562 12.1979 13.708 12.0938 14.0518 11.75C15.104 10.5833 15.8438 8.77075 15.8438 8.77075C15.9375 8.552 16.104 8.354 16.479 8.354L17.9375 8.354Z" clip-rule="evenodd" fill="#0F1113" fill-opacity="1.000000" fill-rule="evenodd"/>
</svg>
